<mxfile host="65bd71144e">
    <diagram id="gsPX4oTVRDO457Spd-DP" name="Page-1">
        <mxGraphModel dx="-7962" dy="-8351" grid="1" gridSize="10" guides="1" tooltips="1" connect="1" arrows="1" fold="1" page="1" pageScale="1" pageWidth="10000" pageHeight="10000" math="0" shadow="0">
            <root>
                <mxCell id="0"/>
                <mxCell id="1" parent="0"/>
                <mxCell id="218" value=".Flags:Placement" style="text;whiteSpace=wrap;" vertex="1" parent="1">
                    <mxGeometry x="14015" y="11655.600000000002" width="110" height="40" as="geometry"/>
                </mxCell>
                <mxCell id="219" style="edgeStyle=none;html=1;exitX=0.909;exitY=1.018;exitDx=0;exitDy=0;exitPerimeter=0;" edge="1" parent="1" source="221">
                    <mxGeometry relative="1" as="geometry">
                        <mxPoint x="11259.369999999999" y="10963.36" as="targetPoint"/>
                    </mxGeometry>
                </mxCell>
                <mxCell id="220" value="current" style="edgeLabel;html=1;align=center;verticalAlign=middle;resizable=0;points=[];" vertex="1" connectable="0" parent="219">
                    <mxGeometry x="-0.0667" y="-2" relative="1" as="geometry">
                        <mxPoint as="offset"/>
                    </mxGeometry>
                </mxCell>
                <mxCell id="221" value="fiberRootNode(æ ¹FiberNode)" style="rounded=0;whiteSpace=wrap;html=1;" vertex="1" parent="1">
                    <mxGeometry x="11139.369999999999" y="10786.04" width="120" height="60" as="geometry"/>
                </mxCell>
                <mxCell id="222" value="-" style="text;html=1;align=center;verticalAlign=middle;resizable=0;points=[];autosize=1;strokeColor=none;fillColor=none;" vertex="1" parent="1">
                    <mxGeometry x="11004.369999999999" y="10801.04" width="30" height="30" as="geometry"/>
                </mxCell>
                <mxCell id="223" value="" style="endArrow=classic;html=1;exitX=0;exitY=0.5;exitDx=0;exitDy=0;" edge="1" parent="1" source="221">
                    <mxGeometry width="50" height="50" relative="1" as="geometry">
                        <mxPoint x="10719.369999999999" y="10846.04" as="sourcePoint"/>
                        <mxPoint x="10957.5" y="10793.36" as="targetPoint"/>
                    </mxGeometry>
                </mxCell>
                <mxCell id="224" value="container" style="edgeLabel;html=1;align=center;verticalAlign=middle;resizable=0;points=[];" vertex="1" connectable="0" parent="223">
                    <mxGeometry x="-0.1564" relative="1" as="geometry">
                        <mxPoint x="1" as="offset"/>
                    </mxGeometry>
                </mxCell>
                <mxCell id="225" style="edgeStyle=none;html=1;exitX=0.25;exitY=1;exitDx=0;exitDy=0;entryX=0.25;entryY=0;entryDx=0;entryDy=0;" edge="1" parent="1" source="227" target="233">
                    <mxGeometry relative="1" as="geometry"/>
                </mxCell>
                <mxCell id="226" value="child" style="edgeLabel;html=1;align=center;verticalAlign=middle;resizable=0;points=[];" vertex="1" connectable="0" parent="225">
                    <mxGeometry x="0.1652" y="1" relative="1" as="geometry">
                        <mxPoint x="-1" y="-8" as="offset"/>
                    </mxGeometry>
                </mxCell>
                <mxCell id="227" value="hostRootFiber&amp;nbsp;" style="rounded=0;whiteSpace=wrap;html=1;" vertex="1" parent="1">
                    <mxGeometry x="11199.369999999999" y="10966.04" width="180" height="60" as="geometry"/>
                </mxCell>
                <mxCell id="228" style="edgeStyle=none;html=1;exitX=0.75;exitY=0;exitDx=0;exitDy=0;entryX=0.75;entryY=1;entryDx=0;entryDy=0;" edge="1" parent="1" source="233" target="227">
                    <mxGeometry relative="1" as="geometry"/>
                </mxCell>
                <mxCell id="229" value="return" style="edgeLabel;html=1;align=center;verticalAlign=middle;resizable=0;points=[];" vertex="1" connectable="0" parent="228">
                    <mxGeometry x="0.0342" y="-2" relative="1" as="geometry">
                        <mxPoint as="offset"/>
                    </mxGeometry>
                </mxCell>
                <mxCell id="230" style="edgeStyle=none;html=1;exitX=1;exitY=0.5;exitDx=0;exitDy=0;entryX=1;entryY=0.75;entryDx=0;entryDy=0;" edge="1" parent="1" source="233">
                    <mxGeometry relative="1" as="geometry">
                        <mxPoint x="11203.119999999999" y="11134.04" as="targetPoint"/>
                    </mxGeometry>
                </mxCell>
                <mxCell id="231" style="edgeStyle=none;html=1;exitX=1;exitY=0.75;exitDx=0;exitDy=0;entryX=0;entryY=0.75;entryDx=0;entryDy=0;" edge="1" parent="1" source="233" target="334">
                    <mxGeometry relative="1" as="geometry"/>
                </mxCell>
                <mxCell id="232" value="alternate" style="edgeLabel;html=1;align=center;verticalAlign=middle;resizable=0;points=[];" vertex="1" connectable="0" parent="231">
                    <mxGeometry x="0.2025" y="-1" relative="1" as="geometry">
                        <mxPoint as="offset"/>
                    </mxGeometry>
                </mxCell>
                <mxCell id="233" value="App FiberNode" style="rounded=0;whiteSpace=wrap;html=1;" vertex="1" parent="1">
                    <mxGeometry x="11199.369999999999" y="11104.04" width="180" height="60" as="geometry"/>
                </mxCell>
                <mxCell id="234" style="edgeStyle=none;html=1;exitX=0.25;exitY=1;exitDx=0;exitDy=0;entryX=0.25;entryY=0;entryDx=0;entryDy=0;" edge="1" parent="1" target="238">
                    <mxGeometry relative="1" as="geometry">
                        <mxPoint x="11244.369999999999" y="11164.04" as="sourcePoint"/>
                    </mxGeometry>
                </mxCell>
                <mxCell id="235" value="child" style="edgeLabel;html=1;align=center;verticalAlign=middle;resizable=0;points=[];" vertex="1" connectable="0" parent="234">
                    <mxGeometry x="-0.2635" y="2" relative="1" as="geometry">
                        <mxPoint as="offset"/>
                    </mxGeometry>
                </mxCell>
                <mxCell id="236" style="edgeStyle=none;html=1;exitX=0.75;exitY=0;exitDx=0;exitDy=0;entryX=0.75;entryY=1;entryDx=0;entryDy=0;" edge="1" parent="1" source="238">
                    <mxGeometry relative="1" as="geometry">
                        <mxPoint x="11334.369999999999" y="11164.04" as="targetPoint"/>
                    </mxGeometry>
                </mxCell>
                <mxCell id="237" value="return" style="edgeLabel;html=1;align=center;verticalAlign=middle;resizable=0;points=[];" vertex="1" connectable="0" parent="236">
                    <mxGeometry x="0.0519" relative="1" as="geometry">
                        <mxPoint as="offset"/>
                    </mxGeometry>
                </mxCell>
                <mxCell id="238" value="div FiberNode" style="rounded=0;whiteSpace=wrap;html=1;" vertex="1" parent="1">
                    <mxGeometry x="11196.24" y="11234.04" width="180" height="60" as="geometry"/>
                </mxCell>
                <mxCell id="239" style="edgeStyle=none;html=1;exitX=0.5;exitY=0;exitDx=0;exitDy=0;entryX=0.25;entryY=1;entryDx=0;entryDy=0;" edge="1" parent="1" source="247" target="238">
                    <mxGeometry relative="1" as="geometry"/>
                </mxCell>
                <mxCell id="240" value="return" style="edgeLabel;html=1;align=center;verticalAlign=middle;resizable=0;points=[];" vertex="1" connectable="0" parent="239">
                    <mxGeometry x="-0.0573" y="-3" relative="1" as="geometry">
                        <mxPoint as="offset"/>
                    </mxGeometry>
                </mxCell>
                <mxCell id="241" style="edgeStyle=none;html=1;exitX=1;exitY=0.5;exitDx=0;exitDy=0;" edge="1" parent="1" source="247" target="254">
                    <mxGeometry relative="1" as="geometry"/>
                </mxCell>
                <mxCell id="242" value="sibling" style="edgeLabel;html=1;align=center;verticalAlign=middle;resizable=0;points=[];" vertex="1" connectable="0" parent="241">
                    <mxGeometry x="-0.0222" y="3" relative="1" as="geometry">
                        <mxPoint as="offset"/>
                    </mxGeometry>
                </mxCell>
                <mxCell id="243" style="edgeStyle=none;html=1;exitX=0.25;exitY=1;exitDx=0;exitDy=0;entryX=0.25;entryY=0;entryDx=0;entryDy=0;" edge="1" parent="1" source="247" target="263">
                    <mxGeometry relative="1" as="geometry"/>
                </mxCell>
                <mxCell id="244" value="child" style="edgeLabel;html=1;align=center;verticalAlign=middle;resizable=0;points=[];" vertex="1" connectable="0" parent="243">
                    <mxGeometry x="-0.1907" y="1" relative="1" as="geometry">
                        <mxPoint as="offset"/>
                    </mxGeometry>
                </mxCell>
                <mxCell id="245" style="edgeStyle=none;html=1;exitX=1;exitY=0.75;exitDx=0;exitDy=0;" edge="1" parent="1" source="247">
                    <mxGeometry relative="1" as="geometry">
                        <mxPoint x="12960" y="11441.36" as="targetPoint"/>
                    </mxGeometry>
                </mxCell>
                <mxCell id="246" value="alternate" style="edgeLabel;html=1;align=center;verticalAlign=middle;resizable=0;points=[];" vertex="1" connectable="0" parent="245">
                    <mxGeometry x="0.27" y="-6" relative="1" as="geometry">
                        <mxPoint x="1" as="offset"/>
                    </mxGeometry>
                </mxCell>
                <mxCell id="247" value="h2 FiberNode" style="rounded=0;whiteSpace=wrap;html=1;" vertex="1" parent="1">
                    <mxGeometry x="10971.24" y="11394.04" width="180" height="60" as="geometry"/>
                </mxCell>
                <mxCell id="248" style="edgeStyle=none;html=1;exitX=0.5;exitY=0;exitDx=0;exitDy=0;" edge="1" parent="1" source="254" target="238">
                    <mxGeometry relative="1" as="geometry"/>
                </mxCell>
                <mxCell id="249" value="return" style="edgeLabel;html=1;align=center;verticalAlign=middle;resizable=0;points=[];" vertex="1" connectable="0" parent="248">
                    <mxGeometry x="0.0027" y="-2" relative="1" as="geometry">
                        <mxPoint as="offset"/>
                    </mxGeometry>
                </mxCell>
                <mxCell id="250" style="edgeStyle=none;html=1;exitX=0.25;exitY=1;exitDx=0;exitDy=0;entryX=0.25;entryY=0;entryDx=0;entryDy=0;" edge="1" parent="1" source="254" target="272">
                    <mxGeometry relative="1" as="geometry"/>
                </mxCell>
                <mxCell id="251" value="child" style="edgeLabel;html=1;align=center;verticalAlign=middle;resizable=0;points=[];" vertex="1" connectable="0" parent="250">
                    <mxGeometry x="-0.0298" y="3" relative="1" as="geometry">
                        <mxPoint as="offset"/>
                    </mxGeometry>
                </mxCell>
                <mxCell id="252" style="edgeStyle=none;html=1;exitX=1;exitY=1;exitDx=0;exitDy=0;entryX=0;entryY=1;entryDx=0;entryDy=0;" edge="1" parent="1" source="254" target="357">
                    <mxGeometry relative="1" as="geometry"/>
                </mxCell>
                <mxCell id="253" value="alternate" style="edgeLabel;html=1;align=center;verticalAlign=middle;resizable=0;points=[];" vertex="1" connectable="0" parent="252">
                    <mxGeometry x="-0.7684" y="-5" relative="1" as="geometry">
                        <mxPoint x="-1" as="offset"/>
                    </mxGeometry>
                </mxCell>
                <mxCell id="254" value="ul FiberNode" style="rounded=0;whiteSpace=wrap;html=1;" vertex="1" parent="1">
                    <mxGeometry x="11709.369999999999" y="11406.04" width="180" height="60" as="geometry"/>
                </mxCell>
                <mxCell id="255" style="edgeStyle=none;html=1;exitX=0.5;exitY=1;exitDx=0;exitDy=0;entryX=0.705;entryY=0.007;entryDx=0;entryDy=0;entryPerimeter=0;" edge="1" parent="1" source="238" target="247">
                    <mxGeometry relative="1" as="geometry"/>
                </mxCell>
                <mxCell id="256" value="child" style="edgeLabel;html=1;align=center;verticalAlign=middle;resizable=0;points=[];" vertex="1" connectable="0" parent="255">
                    <mxGeometry x="0.023" relative="1" as="geometry">
                        <mxPoint y="-1" as="offset"/>
                    </mxGeometry>
                </mxCell>
                <mxCell id="257" value="div id=&#39;&#39;root" style="text;html=1;align=center;verticalAlign=middle;resizable=0;points=[];autosize=1;strokeColor=none;fillColor=none;" vertex="1" parent="1">
                    <mxGeometry x="10890" y="10773.36" width="80" height="30" as="geometry"/>
                </mxCell>
                <mxCell id="258" style="edgeStyle=none;html=1;entryX=1;entryY=0;entryDx=0;entryDy=0;" edge="1" parent="1" source="259">
                    <mxGeometry relative="1" as="geometry">
                        <mxPoint x="11374" y="10966.04" as="targetPoint"/>
                    </mxGeometry>
                </mxCell>
                <mxCell id="259" value="finishedwork" style="text;html=1;align=center;verticalAlign=middle;resizable=0;points=[];autosize=1;strokeColor=none;fillColor=none;" vertex="1" parent="1">
                    <mxGeometry x="11387.23" y="10893.720000000001" width="90" height="30" as="geometry"/>
                </mxCell>
                <mxCell id="260" style="edgeStyle=none;html=1;exitX=0.75;exitY=0;exitDx=0;exitDy=0;entryX=0.75;entryY=1;entryDx=0;entryDy=0;" edge="1" parent="1" source="263" target="247">
                    <mxGeometry relative="1" as="geometry"/>
                </mxCell>
                <mxCell id="261" value="return" style="edgeLabel;html=1;align=center;verticalAlign=middle;resizable=0;points=[];" vertex="1" connectable="0" parent="260">
                    <mxGeometry x="0.0228" y="-2" relative="1" as="geometry">
                        <mxPoint y="1" as="offset"/>
                    </mxGeometry>
                </mxCell>
                <mxCell id="262" style="edgeStyle=none;html=1;exitX=1;exitY=1;exitDx=0;exitDy=0;" edge="1" parent="1" source="263">
                    <mxGeometry relative="1" as="geometry">
                        <mxPoint x="12620" y="11613.36" as="targetPoint"/>
                    </mxGeometry>
                </mxCell>
                <mxCell id="263" value="text FiberNode" style="rounded=0;whiteSpace=wrap;html=1;" vertex="1" parent="1">
                    <mxGeometry x="10971.24" y="11564.04" width="180" height="60" as="geometry"/>
                </mxCell>
                <mxCell id="264" value=".subtreeFlags:NoFlag" style="text;whiteSpace=wrap;" vertex="1" parent="1">
                    <mxGeometry x="11616.24" y="11728.36" width="110" height="40" as="geometry"/>
                </mxCell>
                <mxCell id="265" value=".subtreeFlags:NoFlag" style="text;whiteSpace=wrap;" vertex="1" parent="1">
                    <mxGeometry x="11149.369999999999" y="11386.04" width="110" height="40" as="geometry"/>
                </mxCell>
                <mxCell id="266" style="edgeStyle=none;html=1;exitX=1;exitY=0.5;exitDx=0;exitDy=0;entryX=0;entryY=0.5;entryDx=0;entryDy=0;" edge="1" parent="1" source="272" target="277">
                    <mxGeometry relative="1" as="geometry"/>
                </mxCell>
                <mxCell id="267" value="sibing" style="edgeLabel;html=1;align=center;verticalAlign=middle;resizable=0;points=[];" vertex="1" connectable="0" parent="266">
                    <mxGeometry x="-0.008" y="6" relative="1" as="geometry">
                        <mxPoint as="offset"/>
                    </mxGeometry>
                </mxCell>
                <mxCell id="268" style="edgeStyle=none;html=1;exitX=0.25;exitY=1;exitDx=0;exitDy=0;entryX=0.25;entryY=0;entryDx=0;entryDy=0;" edge="1" parent="1" source="272" target="292">
                    <mxGeometry relative="1" as="geometry"/>
                </mxCell>
                <mxCell id="269" value="child" style="edgeLabel;html=1;align=center;verticalAlign=middle;resizable=0;points=[];" vertex="1" connectable="0" parent="268">
                    <mxGeometry x="-0.0576" y="-3" relative="1" as="geometry">
                        <mxPoint as="offset"/>
                    </mxGeometry>
                </mxCell>
                <mxCell id="270" style="edgeStyle=none;html=1;exitX=0;exitY=1;exitDx=0;exitDy=0;" edge="1" parent="1" source="272">
                    <mxGeometry relative="1" as="geometry">
                        <mxPoint x="14270" y="11676" as="targetPoint"/>
                        <Array as="points">
                            <mxPoint x="11440" y="11626.36"/>
                            <mxPoint x="11450" y="11823.36"/>
                            <mxPoint x="13190" y="11803.36"/>
                            <mxPoint x="14270" y="11793"/>
                        </Array>
                    </mxGeometry>
                </mxCell>
                <mxCell id="271" value="alternate" style="edgeLabel;html=1;align=center;verticalAlign=middle;resizable=0;points=[];" vertex="1" connectable="0" parent="270">
                    <mxGeometry x="0.0373" y="-13" relative="1" as="geometry">
                        <mxPoint as="offset"/>
                    </mxGeometry>
                </mxCell>
                <mxCell id="272" value="li a FiberNode" style="rounded=0;whiteSpace=wrap;html=1;" vertex="1" parent="1">
                    <mxGeometry x="11506.24" y="11566.36" width="110" height="60" as="geometry"/>
                </mxCell>
                <mxCell id="273" style="edgeStyle=none;html=1;exitX=1.006;exitY=0.164;exitDx=0;exitDy=0;entryX=0;entryY=0.75;entryDx=0;entryDy=0;exitPerimeter=0;" edge="1" parent="1" source="277">
                    <mxGeometry relative="1" as="geometry">
                        <mxPoint x="11919.369999999999" y="11576.36" as="sourcePoint"/>
                        <mxPoint x="12169.37" y="11576.440000000002" as="targetPoint"/>
                    </mxGeometry>
                </mxCell>
                <mxCell id="274" value="sibing" style="edgeLabel;html=1;align=center;verticalAlign=middle;resizable=0;points=[];" vertex="1" connectable="0" parent="273">
                    <mxGeometry x="-0.0158" y="-1" relative="1" as="geometry">
                        <mxPoint as="offset"/>
                    </mxGeometry>
                </mxCell>
                <mxCell id="275" style="edgeStyle=none;html=1;exitX=0.25;exitY=1;exitDx=0;exitDy=0;entryX=0.5;entryY=1;entryDx=0;entryDy=0;" edge="1" parent="1" source="277" target="386">
                    <mxGeometry relative="1" as="geometry">
                        <mxPoint x="11750" y="11933.36" as="targetPoint"/>
                        <Array as="points">
                            <mxPoint x="11750" y="11683.36"/>
                            <mxPoint x="11740" y="11883.36"/>
                            <mxPoint x="13920" y="11863.36"/>
                        </Array>
                    </mxGeometry>
                </mxCell>
                <mxCell id="276" value="alternate" style="edgeLabel;html=1;align=center;verticalAlign=middle;resizable=0;points=[];" vertex="1" connectable="0" parent="275">
                    <mxGeometry x="-0.0581" y="-5" relative="1" as="geometry">
                        <mxPoint x="-1" y="1" as="offset"/>
                    </mxGeometry>
                </mxCell>
                <mxCell id="277" value="li b FiberNode" style="rounded=0;whiteSpace=wrap;html=1;" vertex="1" parent="1">
                    <mxGeometry x="11774.369999999999" y="11566.04" width="110" height="60.32" as="geometry"/>
                </mxCell>
                <mxCell id="278" style="edgeStyle=none;html=1;exitX=0.5;exitY=0;exitDx=0;exitDy=0;entryX=0.75;entryY=1;entryDx=0;entryDy=0;" edge="1" parent="1" source="282" target="254">
                    <mxGeometry relative="1" as="geometry"/>
                </mxCell>
                <mxCell id="279" value="return" style="edgeLabel;html=1;align=center;verticalAlign=middle;resizable=0;points=[];" vertex="1" connectable="0" parent="278">
                    <mxGeometry x="-0.0016" y="3" relative="1" as="geometry">
                        <mxPoint as="offset"/>
                    </mxGeometry>
                </mxCell>
                <mxCell id="280" style="edgeStyle=none;html=1;exitX=0;exitY=1;exitDx=0;exitDy=0;entryX=0.373;entryY=0.988;entryDx=0;entryDy=0;entryPerimeter=0;" edge="1" parent="1" source="282" target="379">
                    <mxGeometry relative="1" as="geometry">
                        <mxPoint x="12140" y="11963.36" as="targetPoint"/>
                        <Array as="points">
                            <mxPoint x="12110" y="11626.36"/>
                            <mxPoint x="12110" y="11923.36"/>
                            <mxPoint x="13600" y="11903"/>
                        </Array>
                    </mxGeometry>
                </mxCell>
                <mxCell id="281" value="alternate" style="edgeLabel;html=1;align=center;verticalAlign=middle;resizable=0;points=[];" vertex="1" connectable="0" parent="280">
                    <mxGeometry x="0.0297" y="-4" relative="1" as="geometry">
                        <mxPoint x="-1" as="offset"/>
                    </mxGeometry>
                </mxCell>
                <mxCell id="282" value="li c FiberNode" style="rounded=0;whiteSpace=wrap;html=1;" vertex="1" parent="1">
                    <mxGeometry x="12169.37" y="11566.36" width="110" height="60" as="geometry"/>
                </mxCell>
                <mxCell id="283" style="edgeStyle=none;html=1;exitX=0.5;exitY=0;exitDx=0;exitDy=0;entryX=0.421;entryY=1.049;entryDx=0;entryDy=0;entryPerimeter=0;" edge="1" parent="1" source="272" target="254">
                    <mxGeometry relative="1" as="geometry"/>
                </mxCell>
                <mxCell id="284" value="return" style="edgeLabel;html=1;align=center;verticalAlign=middle;resizable=0;points=[];" vertex="1" connectable="0" parent="283">
                    <mxGeometry x="0.0334" y="-1" relative="1" as="geometry">
                        <mxPoint as="offset"/>
                    </mxGeometry>
                </mxCell>
                <mxCell id="285" style="edgeStyle=none;html=1;exitX=0.5;exitY=0;exitDx=0;exitDy=0;entryX=0.586;entryY=0.984;entryDx=0;entryDy=0;entryPerimeter=0;" edge="1" parent="1" source="277" target="254">
                    <mxGeometry relative="1" as="geometry">
                        <mxPoint x="11664.369999999999" y="11456.04" as="targetPoint"/>
                    </mxGeometry>
                </mxCell>
                <mxCell id="286" value="return" style="edgeLabel;html=1;align=center;verticalAlign=middle;resizable=0;points=[];" vertex="1" connectable="0" parent="285">
                    <mxGeometry x="-0.0771" y="-4" relative="1" as="geometry">
                        <mxPoint as="offset"/>
                    </mxGeometry>
                </mxCell>
                <mxCell id="287" style="edgeStyle=none;html=1;entryX=0;entryY=0.25;entryDx=0;entryDy=0;" edge="1" parent="1" target="398">
                    <mxGeometry relative="1" as="geometry">
                        <Array as="points">
                            <mxPoint x="12200" y="11942.82"/>
                        </Array>
                        <mxPoint x="12200" y="11772.82" as="sourcePoint"/>
                    </mxGeometry>
                </mxCell>
                <mxCell id="288" value="alternate" style="edgeLabel;html=1;align=center;verticalAlign=middle;resizable=0;points=[];" vertex="1" connectable="0" parent="287">
                    <mxGeometry x="-0.7107" relative="1" as="geometry">
                        <mxPoint as="offset"/>
                    </mxGeometry>
                </mxCell>
                <mxCell id="289" style="edgeStyle=none;html=1;exitX=0.25;exitY=1;exitDx=0;exitDy=0;" edge="1" parent="1" source="292">
                    <mxGeometry relative="1" as="geometry">
                        <mxPoint x="14208.130000000001" y="11992.68" as="targetPoint"/>
                        <Array as="points">
                            <mxPoint x="11532.13" y="12092.68"/>
                            <mxPoint x="14208.130000000001" y="12062.68"/>
                        </Array>
                    </mxGeometry>
                </mxCell>
                <mxCell id="290" value="alternate" style="edgeLabel;html=1;align=center;verticalAlign=middle;resizable=0;points=[];" vertex="1" connectable="0" parent="289">
                    <mxGeometry x="0.0955" y="-3" relative="1" as="geometry">
                        <mxPoint x="-2" as="offset"/>
                    </mxGeometry>
                </mxCell>
                <mxCell id="291" style="edgeStyle=none;html=1;exitX=0.75;exitY=1;exitDx=0;exitDy=0;entryX=0.75;entryY=1;entryDx=0;entryDy=0;" edge="1" parent="1" source="292" target="414">
                    <mxGeometry relative="1" as="geometry">
                        <Array as="points">
                            <mxPoint x="11576.26" y="12129.029999999999"/>
                            <mxPoint x="14306.26" y="12099.029999999999"/>
                        </Array>
                    </mxGeometry>
                </mxCell>
                <mxCell id="292" value="a text FiberNode" style="rounded=0;whiteSpace=wrap;html=1;" vertex="1" parent="1">
                    <mxGeometry x="11504.369999999999" y="11708.36" width="110" height="60" as="geometry"/>
                </mxCell>
                <mxCell id="293" style="edgeStyle=none;html=1;exitX=0.75;exitY=0;exitDx=0;exitDy=0;" edge="1" parent="1" source="292">
                    <mxGeometry relative="1" as="geometry">
                        <mxPoint x="11587.369999999999" y="11628.36" as="targetPoint"/>
                    </mxGeometry>
                </mxCell>
                <mxCell id="294" value="return" style="edgeLabel;html=1;align=center;verticalAlign=middle;resizable=0;points=[];" vertex="1" connectable="0" parent="293">
                    <mxGeometry x="0.0935" y="3" relative="1" as="geometry">
                        <mxPoint as="offset"/>
                    </mxGeometry>
                </mxCell>
                <mxCell id="295" value=".subtreeFlags:NoFlag" style="text;whiteSpace=wrap;" vertex="1" parent="1">
                    <mxGeometry x="11176.24" y="11576.36" width="110" height="40" as="geometry"/>
                </mxCell>
                <mxCell id="296" style="edgeStyle=none;html=1;exitX=0.75;exitY=0;exitDx=0;exitDy=0;entryX=0.75;entryY=1;entryDx=0;entryDy=0;" edge="1" parent="1" source="298" target="277">
                    <mxGeometry relative="1" as="geometry"/>
                </mxCell>
                <mxCell id="297" value="return" style="edgeLabel;html=1;align=center;verticalAlign=middle;resizable=0;points=[];" vertex="1" connectable="0" parent="296">
                    <mxGeometry x="0.09" y="-1" relative="1" as="geometry">
                        <mxPoint as="offset"/>
                    </mxGeometry>
                </mxCell>
                <mxCell id="298" value="b text FiberNode" style="rounded=0;whiteSpace=wrap;html=1;" vertex="1" parent="1">
                    <mxGeometry x="11774.369999999999" y="11706.04" width="110" height="60" as="geometry"/>
                </mxCell>
                <mxCell id="299" style="edgeStyle=none;html=1;exitX=0.5;exitY=1;exitDx=0;exitDy=0;entryX=0.424;entryY=-0.063;entryDx=0;entryDy=0;entryPerimeter=0;" edge="1" parent="1" source="277" target="298">
                    <mxGeometry relative="1" as="geometry"/>
                </mxCell>
                <mxCell id="300" value="child" style="edgeLabel;html=1;align=center;verticalAlign=middle;resizable=0;points=[];" vertex="1" connectable="0" parent="299">
                    <mxGeometry x="-0.2415" y="-1" relative="1" as="geometry">
                        <mxPoint as="offset"/>
                    </mxGeometry>
                </mxCell>
                <mxCell id="301" style="edgeStyle=none;html=1;exitX=0.25;exitY=0;exitDx=0;exitDy=0;" edge="1" parent="1" source="303">
                    <mxGeometry relative="1" as="geometry">
                        <mxPoint x="13935.630000000001" y="11993.36" as="targetPoint"/>
                        <Array as="points">
                            <mxPoint x="11835.63" y="12053.36"/>
                            <mxPoint x="13935.630000000001" y="12033.36"/>
                        </Array>
                    </mxGeometry>
                </mxCell>
                <mxCell id="302" value="alternate" style="edgeLabel;html=1;align=center;verticalAlign=middle;resizable=0;points=[];" vertex="1" connectable="0" parent="301">
                    <mxGeometry x="0.1354" y="-3" relative="1" as="geometry">
                        <mxPoint as="offset"/>
                    </mxGeometry>
                </mxCell>
                <mxCell id="303" value=".subtreeFlags:NoFlag" style="text;whiteSpace=wrap;" vertex="1" parent="1">
                    <mxGeometry x="11814.369999999999" y="11766.04" width="110" height="40" as="geometry"/>
                </mxCell>
                <mxCell id="304" value=".subtreeFlags:NoFlag" style="text;whiteSpace=wrap;" vertex="1" parent="1">
                    <mxGeometry x="11844.369999999999" y="11546.04" width="110" height="40" as="geometry"/>
                </mxCell>
                <mxCell id="305" value="c text FiberNode" style="rounded=0;whiteSpace=wrap;html=1;" vertex="1" parent="1">
                    <mxGeometry x="12169.37" y="11708.36" width="110" height="60" as="geometry"/>
                </mxCell>
                <mxCell id="306" style="edgeStyle=none;html=1;exitX=0.75;exitY=0;exitDx=0;exitDy=0;entryX=0.75;entryY=1;entryDx=0;entryDy=0;" edge="1" parent="1">
                    <mxGeometry relative="1" as="geometry">
                        <mxPoint x="12242.37" y="11708.36" as="sourcePoint"/>
                        <mxPoint x="12241.37" y="11628.36" as="targetPoint"/>
                    </mxGeometry>
                </mxCell>
                <mxCell id="307" value="return" style="edgeLabel;html=1;align=center;verticalAlign=middle;resizable=0;points=[];" vertex="1" connectable="0" parent="306">
                    <mxGeometry x="0.09" y="-1" relative="1" as="geometry">
                        <mxPoint as="offset"/>
                    </mxGeometry>
                </mxCell>
                <mxCell id="308" style="edgeStyle=none;html=1;exitX=0.5;exitY=1;exitDx=0;exitDy=0;entryX=0.424;entryY=-0.063;entryDx=0;entryDy=0;entryPerimeter=0;" edge="1" parent="1">
                    <mxGeometry relative="1" as="geometry">
                        <mxPoint x="12214.37" y="11628.36" as="sourcePoint"/>
                        <mxPoint x="12206.37" y="11704.36" as="targetPoint"/>
                    </mxGeometry>
                </mxCell>
                <mxCell id="309" value="child" style="edgeLabel;html=1;align=center;verticalAlign=middle;resizable=0;points=[];" vertex="1" connectable="0" parent="308">
                    <mxGeometry x="-0.2415" y="-1" relative="1" as="geometry">
                        <mxPoint as="offset"/>
                    </mxGeometry>
                </mxCell>
                <mxCell id="310" value=".subtreeFlags:NoFlag" style="text;whiteSpace=wrap;" vertex="1" parent="1">
                    <mxGeometry x="12239.37" y="11766.04" width="110" height="40" as="geometry"/>
                </mxCell>
                <mxCell id="311" value=".subtreeFlags:NoFlag" style="text;whiteSpace=wrap;" vertex="1" parent="1">
                    <mxGeometry x="12229.37" y="11546.04" width="110" height="40" as="geometry"/>
                </mxCell>
                <mxCell id="312" value=".subtreeFlags:NoFlag" style="text;whiteSpace=wrap;" vertex="1" parent="1">
                    <mxGeometry x="11619.369999999999" y="11386.04" width="110" height="40" as="geometry"/>
                </mxCell>
                <mxCell id="313" value=".subtreeFlags:NoFlag" style="text;whiteSpace=wrap;" vertex="1" parent="1">
                    <mxGeometry x="11279.369999999999" y="11286.04" width="110" height="40" as="geometry"/>
                </mxCell>
                <mxCell id="314" value="flags |=Â NoFlag" style="text;whiteSpace=wrap;" vertex="1" parent="1">
                    <mxGeometry x="11389.369999999999" y="11094.04" width="130" height="40" as="geometry"/>
                </mxCell>
                <mxCell id="315" style="edgeStyle=none;html=1;exitX=0;exitY=0;exitDx=0;exitDy=0;" edge="1" parent="1" source="317" target="325">
                    <mxGeometry relative="1" as="geometry">
                        <mxPoint x="11507.5" y="10963.36" as="targetPoint"/>
                    </mxGeometry>
                </mxCell>
                <mxCell id="316" value="alternate" style="edgeLabel;html=1;align=center;verticalAlign=middle;resizable=0;points=[];" vertex="1" connectable="0" parent="315">
                    <mxGeometry x="-0.103" y="8" relative="1" as="geometry">
                        <mxPoint as="offset"/>
                    </mxGeometry>
                </mxCell>
                <mxCell id="317" value="subtreeFlags |= Placement" style="text;whiteSpace=wrap;" vertex="1" parent="1">
                    <mxGeometry x="11383.119999999999" y="10986.04" width="162.5" height="40" as="geometry"/>
                </mxCell>
                <mxCell id="318" value="subtreeFlags |= NoFlag" style="text;whiteSpace=wrap;" vertex="1" parent="1">
                    <mxGeometry x="11383.119999999999" y="11154.04" width="130" height="37.68" as="geometry"/>
                </mxCell>
                <mxCell id="319" style="edgeStyle=none;html=1;exitX=0;exitY=0.75;exitDx=0;exitDy=0;entryX=0;entryY=0.5;entryDx=0;entryDy=0;" edge="1" parent="1" source="325" target="317">
                    <mxGeometry relative="1" as="geometry"/>
                </mxCell>
                <mxCell id="320" value="alternate" style="edgeLabel;html=1;align=center;verticalAlign=middle;resizable=0;points=[];" vertex="1" connectable="0" parent="319">
                    <mxGeometry x="0.0598" y="-1" relative="1" as="geometry">
                        <mxPoint x="-1" as="offset"/>
                    </mxGeometry>
                </mxCell>
                <mxCell id="321" style="edgeStyle=none;html=1;exitX=0;exitY=0.5;exitDx=0;exitDy=0;" edge="1" parent="1" source="325" target="314">
                    <mxGeometry relative="1" as="geometry">
                        <mxPoint x="12803.86" y="10998.36" as="sourcePoint"/>
                        <mxPoint x="11497.5" y="11104.04" as="targetPoint"/>
                    </mxGeometry>
                </mxCell>
                <mxCell id="322" value="child" style="edgeLabel;html=1;align=center;verticalAlign=middle;resizable=0;points=[];" vertex="1" connectable="0" parent="321">
                    <mxGeometry x="0.0066" y="8" relative="1" as="geometry">
                        <mxPoint x="1" as="offset"/>
                    </mxGeometry>
                </mxCell>
                <mxCell id="323" style="edgeStyle=none;html=1;exitX=0.25;exitY=1;exitDx=0;exitDy=0;entryX=0.25;entryY=0;entryDx=0;entryDy=0;" edge="1" parent="1" source="325" target="334">
                    <mxGeometry relative="1" as="geometry"/>
                </mxCell>
                <mxCell id="324" value="child" style="edgeLabel;html=1;align=center;verticalAlign=middle;resizable=0;points=[];" vertex="1" connectable="0" parent="323">
                    <mxGeometry x="0.0145" y="-1" relative="1" as="geometry">
                        <mxPoint y="-1" as="offset"/>
                    </mxGeometry>
                </mxCell>
                <mxCell id="325" value="hostRootFiber&amp;nbsp;" style="rounded=0;whiteSpace=wrap;html=1;" vertex="1" parent="1">
                    <mxGeometry x="13385.370000000003" y="10986.04" width="180" height="60" as="geometry"/>
                </mxCell>
                <mxCell id="326" style="edgeStyle=none;html=1;exitX=0;exitY=0.5;exitDx=0;exitDy=0;entryX=1;entryY=0.5;entryDx=0;entryDy=0;" edge="1" parent="1" source="334" target="233">
                    <mxGeometry relative="1" as="geometry">
                        <mxPoint x="11527.5" y="11143.36" as="targetPoint"/>
                        <Array as="points">
                            <mxPoint x="11557.5" y="11133.36"/>
                        </Array>
                    </mxGeometry>
                </mxCell>
                <mxCell id="327" value="altternate" style="edgeLabel;html=1;align=center;verticalAlign=middle;resizable=0;points=[];" vertex="1" connectable="0" parent="326">
                    <mxGeometry x="-0.1994" y="-1" relative="1" as="geometry">
                        <mxPoint as="offset"/>
                    </mxGeometry>
                </mxCell>
                <mxCell id="328" style="edgeStyle=none;html=1;exitX=0;exitY=1;exitDx=0;exitDy=0;entryX=1;entryY=0.5;entryDx=0;entryDy=0;" edge="1" parent="1" source="334" target="238">
                    <mxGeometry relative="1" as="geometry"/>
                </mxCell>
                <mxCell id="329" value="Text" style="edgeLabel;html=1;align=center;verticalAlign=middle;resizable=0;points=[];" vertex="1" connectable="0" parent="328">
                    <mxGeometry x="0.0024" y="-4" relative="1" as="geometry">
                        <mxPoint x="1" as="offset"/>
                    </mxGeometry>
                </mxCell>
                <mxCell id="330" style="edgeStyle=none;html=1;exitX=0.75;exitY=0;exitDx=0;exitDy=0;entryX=0.75;entryY=1;entryDx=0;entryDy=0;" edge="1" parent="1" source="334" target="325">
                    <mxGeometry relative="1" as="geometry"/>
                </mxCell>
                <mxCell id="331" value="return" style="edgeLabel;html=1;align=center;verticalAlign=middle;resizable=0;points=[];" vertex="1" connectable="0" parent="330">
                    <mxGeometry x="0.0618" y="8" relative="1" as="geometry">
                        <mxPoint as="offset"/>
                    </mxGeometry>
                </mxCell>
                <mxCell id="332" style="edgeStyle=none;html=1;exitX=0.25;exitY=1;exitDx=0;exitDy=0;entryX=0.25;entryY=0;entryDx=0;entryDy=0;" edge="1" parent="1" source="334" target="339">
                    <mxGeometry relative="1" as="geometry"/>
                </mxCell>
                <mxCell id="333" value="child" style="edgeLabel;html=1;align=center;verticalAlign=middle;resizable=0;points=[];" vertex="1" connectable="0" parent="332">
                    <mxGeometry x="-0.0063" y="-4" relative="1" as="geometry">
                        <mxPoint as="offset"/>
                    </mxGeometry>
                </mxCell>
                <mxCell id="334" value="App FiberNode" style="rounded=0;whiteSpace=wrap;html=1;" vertex="1" parent="1">
                    <mxGeometry x="13385.370000000003" y="11126.720000000001" width="180" height="60" as="geometry"/>
                </mxCell>
                <mxCell id="335" style="edgeStyle=none;html=1;exitX=0.75;exitY=0;exitDx=0;exitDy=0;entryX=0.75;entryY=1;entryDx=0;entryDy=0;" edge="1" parent="1" source="339" target="334">
                    <mxGeometry relative="1" as="geometry"/>
                </mxCell>
                <mxCell id="336" value="return" style="edgeLabel;html=1;align=center;verticalAlign=middle;resizable=0;points=[];" vertex="1" connectable="0" parent="335">
                    <mxGeometry x="0.03" y="4" relative="1" as="geometry">
                        <mxPoint as="offset"/>
                    </mxGeometry>
                </mxCell>
                <mxCell id="337" style="edgeStyle=none;html=1;exitX=0.25;exitY=1;exitDx=0;exitDy=0;" edge="1" parent="1" source="339">
                    <mxGeometry relative="1" as="geometry">
                        <mxPoint x="13020" y="11421.36" as="targetPoint"/>
                    </mxGeometry>
                </mxCell>
                <mxCell id="338" value="child" style="edgeLabel;html=1;align=center;verticalAlign=middle;resizable=0;points=[];" vertex="1" connectable="0" parent="337">
                    <mxGeometry x="0.0071" y="-1" relative="1" as="geometry">
                        <mxPoint as="offset"/>
                    </mxGeometry>
                </mxCell>
                <mxCell id="339" value="div FiberNode" style="rounded=0;whiteSpace=wrap;html=1;" vertex="1" parent="1">
                    <mxGeometry x="13380" y="11266.720000000001" width="180" height="60" as="geometry"/>
                </mxCell>
                <mxCell id="340" style="edgeStyle=none;html=1;entryX=0;entryY=0.5;entryDx=0;entryDy=0;exitX=1;exitY=0.75;exitDx=0;exitDy=0;" edge="1" parent="1" source="238" target="339">
                    <mxGeometry relative="1" as="geometry">
                        <mxPoint x="11389.369999999999" y="11276.36" as="sourcePoint"/>
                        <mxPoint x="12807.240000000002" y="11266.54" as="targetPoint"/>
                    </mxGeometry>
                </mxCell>
                <mxCell id="341" value="alternate" style="edgeLabel;html=1;align=center;verticalAlign=middle;resizable=0;points=[];" vertex="1" connectable="0" parent="340">
                    <mxGeometry x="0.2025" y="-1" relative="1" as="geometry">
                        <mxPoint as="offset"/>
                    </mxGeometry>
                </mxCell>
                <mxCell id="342" style="edgeStyle=none;html=1;exitX=0;exitY=0.25;exitDx=0;exitDy=0;" edge="1" parent="1" source="339">
                    <mxGeometry relative="1" as="geometry">
                        <mxPoint x="11385.359999999999" y="11261.36" as="targetPoint"/>
                        <Array as="points">
                            <mxPoint x="11540.369999999999" y="11260.54"/>
                        </Array>
                        <mxPoint x="12793.23" y="11251.54" as="sourcePoint"/>
                    </mxGeometry>
                </mxCell>
                <mxCell id="343" value="altternate" style="edgeLabel;html=1;align=center;verticalAlign=middle;resizable=0;points=[];" vertex="1" connectable="0" parent="342">
                    <mxGeometry x="-0.1994" y="-1" relative="1" as="geometry">
                        <mxPoint as="offset"/>
                    </mxGeometry>
                </mxCell>
                <mxCell id="344" style="edgeStyle=none;html=1;exitX=0;exitY=1;exitDx=0;exitDy=0;entryX=0.912;entryY=-0.045;entryDx=0;entryDy=0;entryPerimeter=0;" edge="1" parent="1" source="339" target="247">
                    <mxGeometry relative="1" as="geometry"/>
                </mxCell>
                <mxCell id="345" value="child" style="edgeLabel;html=1;align=center;verticalAlign=middle;resizable=0;points=[];" vertex="1" connectable="0" parent="344">
                    <mxGeometry x="-0.2279" y="4" relative="1" as="geometry">
                        <mxPoint x="-1" as="offset"/>
                    </mxGeometry>
                </mxCell>
                <mxCell id="346" style="edgeStyle=none;html=1;exitX=0;exitY=0.5;exitDx=0;exitDy=0;entryX=1;entryY=0.25;entryDx=0;entryDy=0;" edge="1" parent="1" source="352" target="263">
                    <mxGeometry relative="1" as="geometry"/>
                </mxCell>
                <mxCell id="347" value="child" style="edgeLabel;html=1;align=center;verticalAlign=middle;resizable=0;points=[];" vertex="1" connectable="0" parent="346">
                    <mxGeometry x="-0.3915" y="-2" relative="1" as="geometry">
                        <mxPoint as="offset"/>
                    </mxGeometry>
                </mxCell>
                <mxCell id="348" style="edgeStyle=none;html=1;exitX=1;exitY=0.5;exitDx=0;exitDy=0;entryX=0;entryY=0.25;entryDx=0;entryDy=0;" edge="1" parent="1" source="352" target="357">
                    <mxGeometry relative="1" as="geometry"/>
                </mxCell>
                <mxCell id="349" value="sibing" style="edgeLabel;html=1;align=center;verticalAlign=middle;resizable=0;points=[];" vertex="1" connectable="0" parent="348">
                    <mxGeometry x="-0.5498" relative="1" as="geometry">
                        <mxPoint x="-1" as="offset"/>
                    </mxGeometry>
                </mxCell>
                <mxCell id="350" style="edgeStyle=none;html=1;exitX=0;exitY=0;exitDx=0;exitDy=0;entryX=0;entryY=0.75;entryDx=0;entryDy=0;" edge="1" parent="1" source="352" target="265">
                    <mxGeometry relative="1" as="geometry"/>
                </mxCell>
                <mxCell id="351" value="alternate" style="edgeLabel;html=1;align=center;verticalAlign=middle;resizable=0;points=[];" vertex="1" connectable="0" parent="350">
                    <mxGeometry x="-0.3694" y="7" relative="1" as="geometry">
                        <mxPoint as="offset"/>
                    </mxGeometry>
                </mxCell>
                <mxCell id="352" value="h2 FiberNode" style="rounded=0;whiteSpace=wrap;html=1;" vertex="1" parent="1">
                    <mxGeometry x="12960" y="11426.04" width="180" height="60" as="geometry"/>
                </mxCell>
                <mxCell id="353" style="edgeStyle=none;html=1;exitX=0;exitY=0.5;exitDx=0;exitDy=0;" edge="1" parent="1" source="357">
                    <mxGeometry relative="1" as="geometry">
                        <mxPoint x="11620" y="11581.36" as="targetPoint"/>
                    </mxGeometry>
                </mxCell>
                <mxCell id="354" value="child" style="edgeLabel;html=1;align=center;verticalAlign=middle;resizable=0;points=[];" vertex="1" connectable="0" parent="353">
                    <mxGeometry x="0.0065" y="-3" relative="1" as="geometry">
                        <mxPoint x="-1" as="offset"/>
                    </mxGeometry>
                </mxCell>
                <mxCell id="355" style="edgeStyle=none;html=1;exitX=0;exitY=0.75;exitDx=0;exitDy=0;entryX=1;entryY=0.75;entryDx=0;entryDy=0;" edge="1" parent="1" source="357" target="254">
                    <mxGeometry relative="1" as="geometry"/>
                </mxCell>
                <mxCell id="356" value="alternate" style="edgeLabel;html=1;align=center;verticalAlign=middle;resizable=0;points=[];" vertex="1" connectable="0" parent="355">
                    <mxGeometry x="0.7644" relative="1" as="geometry">
                        <mxPoint as="offset"/>
                    </mxGeometry>
                </mxCell>
                <mxCell id="357" value="ul FiberNode" style="rounded=0;whiteSpace=wrap;html=1;" vertex="1" parent="1">
                    <mxGeometry x="13830" y="11433.36" width="180" height="60" as="geometry"/>
                </mxCell>
                <mxCell id="358" style="edgeStyle=none;html=1;exitX=0.5;exitY=0;exitDx=0;exitDy=0;entryX=0.434;entryY=0.99;entryDx=0;entryDy=0;entryPerimeter=0;" edge="1" parent="1" source="352" target="339">
                    <mxGeometry relative="1" as="geometry"/>
                </mxCell>
                <mxCell id="359" value="retrun" style="edgeLabel;html=1;align=center;verticalAlign=middle;resizable=0;points=[];" vertex="1" connectable="0" parent="358">
                    <mxGeometry x="-0.0367" y="-5" relative="1" as="geometry">
                        <mxPoint x="1" as="offset"/>
                    </mxGeometry>
                </mxCell>
                <mxCell id="360" style="edgeStyle=none;html=1;exitX=0.5;exitY=0;exitDx=0;exitDy=0;entryX=0.825;entryY=0.97;entryDx=0;entryDy=0;entryPerimeter=0;" edge="1" parent="1" source="357" target="339">
                    <mxGeometry relative="1" as="geometry"/>
                </mxCell>
                <mxCell id="361" value="trturn" style="edgeLabel;html=1;align=center;verticalAlign=middle;resizable=0;points=[];" vertex="1" connectable="0" parent="360">
                    <mxGeometry x="0.0604" y="-6" relative="1" as="geometry">
                        <mxPoint as="offset"/>
                    </mxGeometry>
                </mxCell>
                <mxCell id="362" style="edgeStyle=none;html=1;exitX=0;exitY=0.25;exitDx=0;exitDy=0;entryX=1;entryY=0.5;entryDx=0;entryDy=0;" edge="1" parent="1" source="365" target="263">
                    <mxGeometry relative="1" as="geometry"/>
                </mxCell>
                <mxCell id="363" style="edgeStyle=none;html=1;exitX=0.5;exitY=0;exitDx=0;exitDy=0;entryX=0.25;entryY=1;entryDx=0;entryDy=0;" edge="1" parent="1" source="365" target="352">
                    <mxGeometry relative="1" as="geometry"/>
                </mxCell>
                <mxCell id="364" value="return" style="edgeLabel;html=1;align=center;verticalAlign=middle;resizable=0;points=[];" vertex="1" connectable="0" parent="363">
                    <mxGeometry x="0.0052" y="-3" relative="1" as="geometry">
                        <mxPoint as="offset"/>
                    </mxGeometry>
                </mxCell>
                <mxCell id="365" value="text FiberNode" style="rounded=0;whiteSpace=wrap;html=1;" vertex="1" parent="1">
                    <mxGeometry x="12621.87" y="11566.36" width="180" height="60" as="geometry"/>
                </mxCell>
                <mxCell id="366" style="edgeStyle=none;html=1;exitX=0.5;exitY=1;exitDx=0;exitDy=0;entryX=0.799;entryY=0.035;entryDx=0;entryDy=0;entryPerimeter=0;" edge="1" parent="1" source="352" target="365">
                    <mxGeometry relative="1" as="geometry"/>
                </mxCell>
                <mxCell id="367" value="child" style="edgeLabel;html=1;align=center;verticalAlign=middle;resizable=0;points=[];" vertex="1" connectable="0" parent="366">
                    <mxGeometry x="0.1676" y="-2" relative="1" as="geometry">
                        <mxPoint as="offset"/>
                    </mxGeometry>
                </mxCell>
                <mxCell id="368" value=".subtreeFlags:NoFlag" style="text;whiteSpace=wrap;" vertex="1" parent="1">
                    <mxGeometry x="12801.87" y="11603.36" width="110" height="40" as="geometry"/>
                </mxCell>
                <mxCell id="369" value=".subtreeFlags:NoFlag" style="text;whiteSpace=wrap;" vertex="1" parent="1">
                    <mxGeometry x="13135" y="11426.04" width="110" height="40" as="geometry"/>
                </mxCell>
                <mxCell id="370" value=".Flags:Update" style="text;whiteSpace=wrap;" vertex="1" parent="1">
                    <mxGeometry x="13135" y="11404.04" width="110" height="40" as="geometry"/>
                </mxCell>
                <mxCell id="371" style="edgeStyle=none;html=1;exitX=0.37;exitY=1.048;exitDx=0;exitDy=0;entryX=0;entryY=1;entryDx=0;entryDy=0;exitPerimeter=0;" edge="1" parent="1" source="389" target="272">
                    <mxGeometry relative="1" as="geometry">
                        <Array as="points">
                            <mxPoint x="14230" y="11773"/>
                            <mxPoint x="11470" y="11803.36"/>
                            <mxPoint x="11460" y="11653.36"/>
                        </Array>
                    </mxGeometry>
                </mxCell>
                <mxCell id="372" value="alternate" style="edgeLabel;html=1;align=center;verticalAlign=middle;resizable=0;points=[];" vertex="1" connectable="0" parent="371">
                    <mxGeometry x="-0.0367" y="1" relative="1" as="geometry">
                        <mxPoint as="offset"/>
                    </mxGeometry>
                </mxCell>
                <mxCell id="373" style="edgeStyle=none;html=1;exitX=0.5;exitY=0;exitDx=0;exitDy=0;entryX=0.25;entryY=1;entryDx=0;entryDy=0;" edge="1" parent="1" source="379" target="357">
                    <mxGeometry relative="1" as="geometry"/>
                </mxCell>
                <mxCell id="374" value="return" style="edgeLabel;html=1;align=center;verticalAlign=middle;resizable=0;points=[];" vertex="1" connectable="0" parent="373">
                    <mxGeometry x="-0.0281" y="-3" relative="1" as="geometry">
                        <mxPoint x="1" as="offset"/>
                    </mxGeometry>
                </mxCell>
                <mxCell id="375" style="edgeStyle=none;html=1;exitX=1;exitY=0.5;exitDx=0;exitDy=0;" edge="1" parent="1" source="379" target="386">
                    <mxGeometry relative="1" as="geometry"/>
                </mxCell>
                <mxCell id="376" value="sibing" style="edgeLabel;html=1;align=center;verticalAlign=middle;resizable=0;points=[];" vertex="1" connectable="0" parent="375">
                    <mxGeometry x="-0.2571" y="3" relative="1" as="geometry">
                        <mxPoint as="offset"/>
                    </mxGeometry>
                </mxCell>
                <mxCell id="377" style="edgeStyle=none;html=1;exitX=0.75;exitY=1;exitDx=0;exitDy=0;entryX=0.75;entryY=0;entryDx=0;entryDy=0;" edge="1" parent="1" source="379" target="398">
                    <mxGeometry relative="1" as="geometry"/>
                </mxCell>
                <mxCell id="378" value="child" style="edgeLabel;html=1;align=center;verticalAlign=middle;resizable=0;points=[];" vertex="1" connectable="0" parent="377">
                    <mxGeometry x="-0.0151" y="3" relative="1" as="geometry">
                        <mxPoint as="offset"/>
                    </mxGeometry>
                </mxCell>
                <mxCell id="379" value="li c FiberNode" style="rounded=0;whiteSpace=wrap;html=1;" vertex="1" parent="1">
                    <mxGeometry x="13520" y="11616.36" width="180" height="60" as="geometry"/>
                </mxCell>
                <mxCell id="380" style="edgeStyle=none;html=1;exitX=0.5;exitY=0;exitDx=0;exitDy=0;entryX=0.5;entryY=1;entryDx=0;entryDy=0;" edge="1" parent="1" source="386" target="357">
                    <mxGeometry relative="1" as="geometry"/>
                </mxCell>
                <mxCell id="381" value="return" style="edgeLabel;html=1;align=center;verticalAlign=middle;resizable=0;points=[];" vertex="1" connectable="0" parent="380">
                    <mxGeometry x="0.0334" y="-4" relative="1" as="geometry">
                        <mxPoint as="offset"/>
                    </mxGeometry>
                </mxCell>
                <mxCell id="382" style="edgeStyle=none;html=1;exitX=1;exitY=0.5;exitDx=0;exitDy=0;entryX=0;entryY=0.5;entryDx=0;entryDy=0;" edge="1" parent="1" source="386" target="389">
                    <mxGeometry relative="1" as="geometry"/>
                </mxCell>
                <mxCell id="383" value="sibing" style="edgeLabel;html=1;align=center;verticalAlign=middle;resizable=0;points=[];" vertex="1" connectable="0" parent="382">
                    <mxGeometry x="-0.0648" y="1" relative="1" as="geometry">
                        <mxPoint as="offset"/>
                    </mxGeometry>
                </mxCell>
                <mxCell id="384" style="edgeStyle=none;html=1;exitX=0.25;exitY=1;exitDx=0;exitDy=0;entryX=0;entryY=1;entryDx=0;entryDy=0;" edge="1" parent="1" source="386" target="277">
                    <mxGeometry relative="1" as="geometry">
                        <Array as="points">
                            <mxPoint x="13875" y="11843.36"/>
                            <mxPoint x="11730" y="11853.36"/>
                            <mxPoint x="11740" y="11673.36"/>
                        </Array>
                    </mxGeometry>
                </mxCell>
                <mxCell id="385" value="alternate" style="edgeLabel;html=1;align=center;verticalAlign=middle;resizable=0;points=[];" vertex="1" connectable="0" parent="384">
                    <mxGeometry x="0.1459" y="7" relative="1" as="geometry">
                        <mxPoint x="1" as="offset"/>
                    </mxGeometry>
                </mxCell>
                <mxCell id="386" value="li b FiberNode" style="rounded=0;whiteSpace=wrap;html=1;" vertex="1" parent="1">
                    <mxGeometry x="13830" y="11616.36" width="180" height="60" as="geometry"/>
                </mxCell>
                <mxCell id="387" style="edgeStyle=none;html=1;" edge="1" parent="1">
                    <mxGeometry relative="1" as="geometry">
                        <mxPoint x="12170" y="11633.36" as="targetPoint"/>
                        <Array as="points">
                            <mxPoint x="13620" y="11893"/>
                            <mxPoint x="12130" y="11913.36"/>
                            <mxPoint x="12140" y="11643.36"/>
                        </Array>
                        <mxPoint x="13620" y="11683" as="sourcePoint"/>
                    </mxGeometry>
                </mxCell>
                <mxCell id="388" value="alternate" style="edgeLabel;html=1;align=center;verticalAlign=middle;resizable=0;points=[];" vertex="1" connectable="0" parent="387">
                    <mxGeometry x="-0.0149" y="1" relative="1" as="geometry">
                        <mxPoint as="offset"/>
                    </mxGeometry>
                </mxCell>
                <mxCell id="389" value="li a FiberNode" style="rounded=0;whiteSpace=wrap;html=1;" vertex="1" parent="1">
                    <mxGeometry x="14160" y="11613.36" width="180" height="60" as="geometry"/>
                </mxCell>
                <mxCell id="390" style="edgeStyle=none;html=1;exitX=0.5;exitY=0;exitDx=0;exitDy=0;entryX=0.84;entryY=0.999;entryDx=0;entryDy=0;entryPerimeter=0;" edge="1" parent="1" source="389" target="357">
                    <mxGeometry relative="1" as="geometry"/>
                </mxCell>
                <mxCell id="391" value="return" style="edgeLabel;html=1;align=center;verticalAlign=middle;resizable=0;points=[];" vertex="1" connectable="0" parent="390">
                    <mxGeometry x="0.0253" y="3" relative="1" as="geometry">
                        <mxPoint as="offset"/>
                    </mxGeometry>
                </mxCell>
                <mxCell id="392" style="edgeStyle=none;html=1;exitX=0;exitY=1;exitDx=0;exitDy=0;entryX=0.303;entryY=0;entryDx=0;entryDy=0;entryPerimeter=0;" edge="1" parent="1" source="357" target="379">
                    <mxGeometry relative="1" as="geometry"/>
                </mxCell>
                <mxCell id="393" value="child" style="edgeLabel;html=1;align=center;verticalAlign=middle;resizable=0;points=[];" vertex="1" connectable="0" parent="392">
                    <mxGeometry x="-0.0017" y="-2" relative="1" as="geometry">
                        <mxPoint as="offset"/>
                    </mxGeometry>
                </mxCell>
                <mxCell id="394" style="edgeStyle=none;html=1;exitX=0.25;exitY=0;exitDx=0;exitDy=0;entryX=0.25;entryY=1;entryDx=0;entryDy=0;" edge="1" parent="1" source="398" target="379">
                    <mxGeometry relative="1" as="geometry"/>
                </mxCell>
                <mxCell id="395" value="return" style="edgeLabel;html=1;align=center;verticalAlign=middle;resizable=0;points=[];" vertex="1" connectable="0" parent="394">
                    <mxGeometry x="-0.2333" y="-1" relative="1" as="geometry">
                        <mxPoint as="offset"/>
                    </mxGeometry>
                </mxCell>
                <mxCell id="396" style="edgeStyle=none;html=1;exitX=0;exitY=0.5;exitDx=0;exitDy=0;entryX=0.5;entryY=1;entryDx=0;entryDy=0;" edge="1" parent="1" source="398" target="305">
                    <mxGeometry relative="1" as="geometry">
                        <Array as="points">
                            <mxPoint x="12224" y="11952.82"/>
                        </Array>
                    </mxGeometry>
                </mxCell>
                <mxCell id="397" value="alternate" style="edgeLabel;html=1;align=center;verticalAlign=middle;resizable=0;points=[];" vertex="1" connectable="0" parent="396">
                    <mxGeometry x="0.6757" y="-5" relative="1" as="geometry">
                        <mxPoint as="offset"/>
                    </mxGeometry>
                </mxCell>
                <mxCell id="398" value="c text FiberNode" style="rounded=0;whiteSpace=wrap;html=1;" vertex="1" parent="1">
                    <mxGeometry x="13520" y="11923.36" width="180" height="60" as="geometry"/>
                </mxCell>
                <mxCell id="399" value=".subtreeFlags:NoFlag" style="text;whiteSpace=wrap;" vertex="1" parent="1">
                    <mxGeometry x="13655" y="12000.220000000001" width="110" height="40" as="geometry"/>
                </mxCell>
                <mxCell id="400" value=".subtreeFlags:NoFlag" style="text;whiteSpace=wrap;" vertex="1" parent="1">
                    <mxGeometry x="13399.37" y="11610.220000000001" width="110" height="40" as="geometry"/>
                </mxCell>
                <mxCell id="401" style="edgeStyle=none;html=1;exitX=0.5;exitY=1;exitDx=0;exitDy=0;entryX=0.25;entryY=1;entryDx=0;entryDy=0;" edge="1" parent="1" source="403" target="298">
                    <mxGeometry relative="1" as="geometry">
                        <Array as="points">
                            <mxPoint x="11801.63" y="12003.36"/>
                        </Array>
                    </mxGeometry>
                </mxCell>
                <mxCell id="402" value="alternate" style="edgeLabel;html=1;align=center;verticalAlign=middle;resizable=0;points=[];" vertex="1" connectable="0" parent="401">
                    <mxGeometry x="-0.1517" y="-5" relative="1" as="geometry">
                        <mxPoint x="1" as="offset"/>
                    </mxGeometry>
                </mxCell>
                <mxCell id="403" value="b text FiberNode" style="rounded=0;whiteSpace=wrap;html=1;" vertex="1" parent="1">
                    <mxGeometry x="13825.630000000001" y="11930.579999999998" width="180" height="60" as="geometry"/>
                </mxCell>
                <mxCell id="404" style="edgeStyle=none;html=1;exitX=0.75;exitY=1;exitDx=0;exitDy=0;entryX=0.75;entryY=0;entryDx=0;entryDy=0;" edge="1" parent="1">
                    <mxGeometry relative="1" as="geometry">
                        <mxPoint x="13940" y="11676.36" as="sourcePoint"/>
                        <mxPoint x="13940" y="11923.36" as="targetPoint"/>
                    </mxGeometry>
                </mxCell>
                <mxCell id="405" value="child" style="edgeLabel;html=1;align=center;verticalAlign=middle;resizable=0;points=[];" vertex="1" connectable="0" parent="404">
                    <mxGeometry x="-0.0151" y="3" relative="1" as="geometry">
                        <mxPoint as="offset"/>
                    </mxGeometry>
                </mxCell>
                <mxCell id="406" style="edgeStyle=none;html=1;exitX=0.25;exitY=0;exitDx=0;exitDy=0;entryX=0.25;entryY=1;entryDx=0;entryDy=0;" edge="1" parent="1">
                    <mxGeometry relative="1" as="geometry">
                        <mxPoint x="13895" y="11927.579999999998" as="sourcePoint"/>
                        <mxPoint x="13895" y="11680.579999999998" as="targetPoint"/>
                    </mxGeometry>
                </mxCell>
                <mxCell id="407" value="return" style="edgeLabel;html=1;align=center;verticalAlign=middle;resizable=0;points=[];" vertex="1" connectable="0" parent="406">
                    <mxGeometry x="-0.2333" y="-1" relative="1" as="geometry">
                        <mxPoint as="offset"/>
                    </mxGeometry>
                </mxCell>
                <mxCell id="410" value=".subtreeFlags:NoFlag" style="text;whiteSpace=wrap;" vertex="1" parent="1">
                    <mxGeometry x="13988.130000000001" y="11998.54" width="110" height="40" as="geometry"/>
                </mxCell>
                <mxCell id="411" value=".subtreeFlags:NoFlag" style="text;whiteSpace=wrap;" vertex="1" parent="1">
                    <mxGeometry x="13970.630000000001" y="11686.440000000002" width="110" height="40" as="geometry"/>
                </mxCell>
                <mxCell id="412" value=".Flags:NoFlag" style="text;whiteSpace=wrap;" vertex="1" parent="1">
                    <mxGeometry x="13399.37" y="11650.220000000001" width="110" height="40" as="geometry"/>
                </mxCell>
                <mxCell id="413" value="alternate" style="edgeLabel;html=1;align=center;verticalAlign=middle;resizable=0;points=[];" vertex="1" connectable="0" parent="1">
                    <mxGeometry x="12888.897955881703" y="12112.388231228062" as="geometry"/>
                </mxCell>
                <mxCell id="414" value="a text FiberNode" style="rounded=0;whiteSpace=wrap;html=1;" vertex="1" parent="1">
                    <mxGeometry x="14160.000000000002" y="11926.219999999998" width="180" height="60" as="geometry"/>
                </mxCell>
                <mxCell id="415" style="edgeStyle=none;html=1;exitX=0.75;exitY=1;exitDx=0;exitDy=0;entryX=0.75;entryY=0;entryDx=0;entryDy=0;" edge="1" parent="1">
                    <mxGeometry relative="1" as="geometry">
                        <mxPoint x="14188.13" y="11679.220000000001" as="sourcePoint"/>
                        <mxPoint x="14188.13" y="11926.220000000001" as="targetPoint"/>
                    </mxGeometry>
                </mxCell>
                <mxCell id="416" value="child" style="edgeLabel;html=1;align=center;verticalAlign=middle;resizable=0;points=[];" vertex="1" connectable="0" parent="415">
                    <mxGeometry x="-0.0151" y="3" relative="1" as="geometry">
                        <mxPoint as="offset"/>
                    </mxGeometry>
                </mxCell>
                <mxCell id="417" style="edgeStyle=none;html=1;exitX=0.25;exitY=0;exitDx=0;exitDy=0;entryX=0.25;entryY=1;entryDx=0;entryDy=0;" edge="1" parent="1">
                    <mxGeometry relative="1" as="geometry">
                        <mxPoint x="14318.13" y="11926.219999999998" as="sourcePoint"/>
                        <mxPoint x="14318.13" y="11679.219999999998" as="targetPoint"/>
                    </mxGeometry>
                </mxCell>
                <mxCell id="418" value="return" style="edgeLabel;html=1;align=center;verticalAlign=middle;resizable=0;points=[];" vertex="1" connectable="0" parent="417">
                    <mxGeometry x="-0.2333" y="-1" relative="1" as="geometry">
                        <mxPoint as="offset"/>
                    </mxGeometry>
                </mxCell>
                <mxCell id="419" value=".Flags:Placement" style="text;whiteSpace=wrap;" vertex="1" parent="1">
                    <mxGeometry x="14356.26" y="11643.36" width="110" height="40" as="geometry"/>
                </mxCell>
                <mxCell id="420" value=".subtreeFlags:NoFlag" style="text;whiteSpace=wrap;" vertex="1" parent="1">
                    <mxGeometry x="14340.000000000002" y="11972" width="110" height="40" as="geometry"/>
                </mxCell>
                <mxCell id="421" value=".Flags:NoFlag" style="text;whiteSpace=wrap;" vertex="1" parent="1">
                    <mxGeometry x="13563.130000000001" y="11998.54" width="110" height="40" as="geometry"/>
                </mxCell>
                <mxCell id="422" value=".Flags:NoFlag" style="text;whiteSpace=wrap;" vertex="1" parent="1">
                    <mxGeometry x="13996.26" y="12029.32" width="110" height="40" as="geometry"/>
                </mxCell>
                <mxCell id="423" value=".Flags:NoFlag" style="text;whiteSpace=wrap;" vertex="1" parent="1">
                    <mxGeometry x="14346.26" y="12002" width="110" height="40" as="geometry"/>
                </mxCell>
                <mxCell id="424" value=".subtreeFlags:NoFlag" style="text;whiteSpace=wrap;" vertex="1" parent="1">
                    <mxGeometry x="14340.000000000002" y="11688.36" width="110" height="40" as="geometry"/>
                </mxCell>
                <mxCell id="425" value=".subtreeFlags:PlacementÂ Placement" style="text;whiteSpace=wrap;" vertex="1" parent="1">
                    <mxGeometry x="14026.890000000001" y="11464.030000000002" width="110" height="40" as="geometry"/>
                </mxCell>
                <mxCell id="426" value=".Flags:NoFlag" style="text;whiteSpace=wrap;" vertex="1" parent="1">
                    <mxGeometry x="14020" y="11424.029999999999" width="110" height="40" as="geometry"/>
                </mxCell>
                <mxCell id="429" value=".subtreeFlags:PlacementÂ Placement" style="text;whiteSpace=wrap;" vertex="1" parent="1">
                    <mxGeometry x="13596.330000000002" y="11298.640000000003" width="110" height="40" as="geometry"/>
                </mxCell>
                <mxCell id="430" value=".Flags:NoFlag" style="text;whiteSpace=wrap;" vertex="1" parent="1">
                    <mxGeometry x="13589.44" y="11258.64" width="110" height="40" as="geometry"/>
                </mxCell>
                <mxCell id="433" value=".subtreeFlags:PlacementÂ Placement" style="text;whiteSpace=wrap;" vertex="1" parent="1">
                    <mxGeometry x="13592.520000000002" y="11158.360000000004" width="110" height="40" as="geometry"/>
                </mxCell>
                <mxCell id="434" value=".Flags:NoFlag" style="text;whiteSpace=wrap;" vertex="1" parent="1">
                    <mxGeometry x="13585.630000000001" y="11118.36" width="110" height="40" as="geometry"/>
                </mxCell>
                <mxCell id="435" style="edgeStyle=none;html=1;" edge="1" parent="1" source="436">
                    <mxGeometry relative="1" as="geometry">
                        <mxPoint x="13545.000000000002" y="10986.039999999997" as="targetPoint"/>
                    </mxGeometry>
                </mxCell>
                <mxCell id="436" value="workInprogress" style="text;html=1;align=center;verticalAlign=middle;resizable=0;points=[];autosize=1;strokeColor=none;fillColor=none;" vertex="1" parent="1">
                    <mxGeometry x="13545.000000000002" y="10905.259999999998" width="110" height="30" as="geometry"/>
                </mxCell>
                <mxCell id="437" value=".subtreeFlags:PlacementÂ Placement" style="text;whiteSpace=wrap;" vertex="1" parent="1">
                    <mxGeometry x="13578.150000000001" y="11007.900000000005" width="110" height="40" as="geometry"/>
                </mxCell>
                <mxCell id="438" value=".Flags:NoFlag" style="text;whiteSpace=wrap;" vertex="1" parent="1">
                    <mxGeometry x="13571.26" y="10967.900000000001" width="110" height="40" as="geometry"/>
                </mxCell>
            </root>
        </mxGraphModel>
    </diagram>
</mxfile>